<?xml version="1.0" encoding="UTF-8" standalone="no"?><!-- Generator: Gravit.io --><svg xmlns="http://www.w3.org/2000/svg" xmlns:xlink="http://www.w3.org/1999/xlink" style="isolation:isolate" viewBox="0 0 80 70" width="80pt" height="70pt"><defs><clipPath id="_clipPath_kBuYAiDwq6vqBai5drvSZpI66Tzvj1jS"><rect width="80" height="70"/></clipPath></defs><g clip-path="url(#_clipPath_kBuYAiDwq6vqBai5drvSZpI66Tzvj1jS)"><path d=" M 18.714 57.545 L 18.714 57.545 L 18.714 57.545 Q 18.663 57.622 18.503 57.566 L 18.503 57.566 L 18.503 57.566 Q 18.343 57.51 18.176 57.473 L 18.176 57.473 L 18.316 57.331 L 18.316 57.331 Q 17.944 57.142 17.75 56.863 L 17.75 56.863 L 17.75 56.863 Q 17.556 56.583 17.394 56.297 L 17.394 56.297 L 17.394 56.297 Q 17.232 56.01 17.064 55.756 L 17.064 55.756 L 17.064 55.756 Q 16.896 55.502 16.575 55.364 L 16.575 55.364 L 16.575 55.364 Q 16.677 55.338 16.638 55.236 L 16.638 55.236 L 16.638 55.236 Q 16.599 55.134 16.508 55.007 L 16.508 55.007 L 16.508 55.007 Q 16.418 54.88 16.289 54.766 L 16.289 54.766 L 16.289 54.766 Q 16.161 54.652 16.071 54.588 L 16.071 54.588 L 16.071 54.588 Q 15.836 54.028 15.506 53.513 L 15.506 53.513 L 15.506 53.513 Q 15.176 52.998 14.834 52.509 L 14.834 52.509 L 14.834 52.509 Q 14.491 52.019 14.194 51.536 L 14.194 51.536 L 14.194 51.536 Q 13.896 51.053 13.7 50.556 L 13.7 50.556 L 13.7 50.556 Q 13.852 50.35 14.119 50.221 L 14.119 50.221 L 14.119 50.221 Q 14.387 50.091 14.553 50.128 L 14.553 50.128 L 14.553 50.128 Q 14.637 49.424 14.503 48.684 L 14.503 48.684 L 14.503 48.684 Q 14.37 47.944 14.262 47.216 L 14.262 47.216 L 14.262 47.216 Q 14.154 46.489 14.225 45.773 L 14.225 45.773 L 14.225 45.773 Q 14.296 45.056 14.815 44.401 L 14.815 44.401 L 14.815 44.401 Q 15.338 44.307 15.969 44.168 L 15.969 44.168 L 15.969 44.168 Q 16.601 44.029 17.215 44.152 L 17.215 44.152 L 17.215 44.152 Q 17.381 44.112 17.547 44.085 L 17.547 44.085 L 17.547 44.085 Q 17.713 44.058 17.879 44.019 L 17.879 44.019 L 18.072 44.209 L 18.072 44.209 Q 18.417 44.193 18.762 44.293 L 18.762 44.293 L 18.762 44.293 Q 19.108 44.392 19.454 44.543 L 19.454 44.543 L 19.454 44.543 Q 19.801 44.694 20.147 44.857 L 20.147 44.857 L 20.147 44.857 Q 20.493 45.02 20.826 45.12 L 20.826 45.12 L 20.826 45.12 Q 20.878 45.222 20.943 45.272 L 20.943 45.272 L 20.943 45.272 Q 21.007 45.323 21.084 45.361 L 21.084 45.361 L 21.084 45.361 Q 21.161 45.399 21.244 45.455 L 21.244 45.455 L 21.244 45.455 Q 21.328 45.512 21.431 45.614 L 21.431 45.614 L 21.431 45.614 Q 22.063 46.337 22.095 47.142 L 22.095 47.142 L 22.095 47.142 Q 22.127 47.947 21.839 48.767 L 21.839 48.767 L 21.839 48.767 Q 21.552 49.587 21.117 50.402 L 21.117 50.402 L 21.117 50.402 Q 20.683 51.217 20.395 51.947 L 20.395 51.947 L 20.395 51.947 Q 20.446 51.998 20.503 51.94 L 20.503 51.94 L 20.503 51.94 Q 20.56 51.882 20.612 51.984 L 20.612 51.984 L 20.612 51.984 Q 21.224 51.826 21.575 51.753 L 21.575 51.753 L 21.575 51.753 Q 21.926 51.68 22.206 51.588 L 22.206 51.588 L 22.206 51.588 Q 22.487 51.496 22.773 51.334 L 22.773 51.334 L 22.773 51.334 Q 23.059 51.172 23.542 50.862 L 23.542 50.862 L 23.542 50.862 Q 24.026 50.551 24.305 50.383 L 24.305 50.383 L 24.305 50.383 Q 24.585 50.215 24.795 50.066 L 24.795 50.066 L 24.795 50.066 Q 25.005 49.918 25.233 49.737 L 25.233 49.737 L 25.233 49.737 Q 25.462 49.556 25.843 49.246 L 25.843 49.246 L 25.843 49.246 Q 26.124 49.244 26.406 49.344 L 26.406 49.344 L 26.406 49.344 Q 26.688 49.444 26.919 49.596 L 26.919 49.596 L 26.919 49.596 Q 27.15 49.747 27.305 49.938 L 27.305 49.938 L 27.305 49.938 Q 27.46 50.128 27.474 50.32 L 27.474 50.32 L 27.474 50.32 Q 27.538 50.358 27.589 50.293 L 27.589 50.293 L 27.589 50.293 Q 27.639 50.229 27.716 50.177 L 27.716 50.177 L 27.716 50.177 Q 27.691 50.331 27.718 50.484 L 27.718 50.484 L 27.718 50.484 Q 27.745 50.637 27.772 50.79 L 27.772 50.79 L 27.772 50.79 Q 27.798 50.943 27.793 51.103 L 27.793 51.103 L 27.793 51.103 Q 27.788 51.263 27.674 51.404 L 27.674 51.404 L 27.674 51.404 Q 27.398 52.046 26.521 52.602 L 26.521 52.602 L 26.521 52.602 Q 25.643 53.158 24.116 53.86 L 24.116 53.86 L 24.116 53.86 Q 23.364 54.211 22.855 54.394 L 22.855 54.394 L 22.855 54.394 Q 22.345 54.577 21.93 54.676 L 21.93 54.676 L 21.93 54.676 Q 21.516 54.775 21.114 54.811 L 21.114 54.811 L 21.114 54.811 Q 20.711 54.846 20.175 54.875 L 20.175 54.875 L 20.175 54.875 Q 20.15 54.927 20.182 54.971 L 20.182 54.971 L 20.182 54.971 Q 20.214 55.016 20.189 55.067 L 20.189 55.067 L 20.189 55.067 Q 20.641 55.639 20.83 56.091 L 20.83 56.091 L 20.83 56.091 Q 21.019 56.543 21.1 57.13 L 21.1 57.13 L 21.1 57.13 Q 20.858 57.298 20.866 57.445 L 20.866 57.445 L 20.866 57.445 Q 20.874 57.592 20.837 57.758 L 20.837 57.758 L 20.837 57.758 Q 20.736 57.912 20.64 57.945 L 20.64 57.945 L 20.64 57.945 Q 20.544 57.978 20.455 57.991 L 20.455 57.991 L 20.455 57.991 Q 20.366 58.005 20.264 58.031 L 20.264 58.031 L 20.264 58.031 Q 20.162 58.058 20.035 58.212 L 20.035 58.212 L 20.035 58.212 Q 19.881 58.136 19.734 58.067 L 19.734 58.067 L 19.734 58.067 Q 19.586 57.998 19.434 58.178 L 19.434 58.178 L 19.434 58.178 Q 19.356 58.026 19.26 57.956 L 19.26 57.956 L 19.26 57.956 Q 19.163 57.886 19.067 57.843 L 19.067 57.843 L 19.067 57.843 Q 18.971 57.799 18.875 57.742 L 18.875 57.742 L 18.875 57.742 Q 18.779 57.685 18.714 57.545 Z  M 17.062 47.45 L 17.062 47.45 L 17.062 47.45 Q 17.142 47.858 17.139 48.261 L 17.139 48.261 L 17.139 48.261 Q 17.136 48.663 17.152 49.072 L 17.152 49.072 L 17.152 49.072 Q 17.168 49.481 17.267 49.883 L 17.267 49.883 L 17.267 49.883 Q 17.366 50.284 17.65 50.691 L 17.65 50.691 L 17.65 50.691 Q 18.118 50.087 18.463 49.26 L 18.463 49.26 L 18.463 49.26 Q 18.808 48.433 19.109 47.689 L 19.109 47.689 L 19.109 47.689 Q 18.569 47.285 18.013 47.27 L 18.013 47.27 L 18.013 47.27 Q 17.457 47.255 17.062 47.45 Z  M 27.682 36.146 L 27.682 36.146 L 27.682 36.146 Q 27.785 36.222 27.823 36.273 L 27.823 36.273 L 27.823 36.273 Q 27.862 36.324 27.894 36.368 L 27.894 36.368 L 27.894 36.368 Q 27.927 36.413 27.972 36.457 L 27.972 36.457 L 27.972 36.457 Q 28.017 36.501 28.132 36.564 L 28.132 36.564 L 28.132 36.564 Q 28.304 37.266 28.116 37.779 L 28.116 37.779 L 28.116 37.779 Q 27.929 38.291 27.594 38.773 L 27.594 38.773 L 27.594 38.773 Q 27.259 39.255 26.912 39.762 L 26.912 39.762 L 26.912 39.762 Q 26.564 40.27 26.403 40.948 L 26.403 40.948 L 26.403 40.948 Q 26.174 41.053 26.106 41.251 L 26.106 41.251 L 26.106 41.251 Q 26.037 41.45 25.757 41.682 L 25.757 41.682 L 25.757 41.682 Q 25.759 41.835 25.677 41.983 L 25.677 41.983 L 25.677 41.983 Q 25.595 42.131 25.519 42.284 L 25.519 42.284 L 25.519 42.284 Q 25.686 42.347 25.802 42.474 L 25.802 42.474 L 25.802 42.474 Q 25.918 42.601 26.033 42.638 L 26.033 42.638 L 26.033 42.638 Q 26.516 42.225 27.003 41.627 L 27.003 41.627 L 27.003 41.627 Q 27.49 41.029 27.997 40.489 L 27.997 40.489 L 27.997 40.489 Q 28.074 40.539 28.068 40.584 L 28.068 40.584 L 28.068 40.584 Q 28.062 40.629 28.126 40.667 L 28.126 40.667 L 28.126 40.667 Q 28.279 40.64 28.465 40.645 L 28.465 40.645 L 28.465 40.645 Q 28.65 40.65 28.829 40.648 L 28.829 40.648 L 28.829 40.648 Q 29.008 40.647 29.161 40.607 L 29.161 40.607 L 29.161 40.607 Q 29.314 40.568 29.428 40.426 L 29.428 40.426 L 29.428 40.426 Q 29.582 40.476 29.723 40.577 L 29.723 40.577 L 29.723 40.577 Q 29.864 40.678 29.942 40.857 L 29.942 40.857 L 29.942 40.857 Q 29.881 41.202 29.827 41.554 L 29.827 41.554 L 29.827 41.554 Q 29.772 41.906 29.666 42.245 L 29.666 42.245 L 29.666 42.245 Q 29.56 42.585 29.384 42.906 L 29.384 42.906 L 29.384 42.906 Q 29.207 43.227 28.89 43.523 L 28.89 43.523 L 28.89 43.523 Q 28.827 43.587 28.795 43.62 L 28.795 43.62 L 28.795 43.62 Q 28.763 43.652 28.674 43.665 L 28.674 43.665 L 28.674 43.665 Q 28.637 43.832 28.427 43.993 L 28.427 43.993 L 28.427 43.993 Q 28.218 44.154 28.181 44.321 L 28.181 44.321 L 28.181 44.321 Q 27.977 44.399 27.787 44.605 L 27.787 44.605 L 27.787 44.605 Q 27.597 44.811 27.393 44.915 L 27.393 44.915 L 27.393 44.915 Q 27.461 45.387 27.605 45.859 L 27.605 45.859 L 27.605 45.859 Q 27.749 46.331 27.97 46.802 L 27.97 46.802 L 27.97 46.802 Q 28.466 46.427 28.738 46.125 L 28.738 46.125 L 28.738 46.125 Q 29.01 45.822 29.232 45.533 L 29.232 45.533 L 29.232 45.533 Q 29.453 45.244 29.687 44.942 L 29.687 44.942 L 29.687 44.942 Q 29.921 44.639 30.34 44.24 L 30.34 44.24 L 30.34 44.24 Q 30.452 43.843 30.755 43.444 L 30.755 43.444 L 30.755 43.444 Q 31.059 43.046 31.247 42.648 L 31.247 42.648 L 31.247 42.648 Q 31.387 42.583 31.56 42.601 L 31.56 42.601 L 31.56 42.601 Q 31.733 42.619 31.886 42.63 L 31.886 42.63 L 31.886 42.63 Q 32.039 42.642 32.18 42.628 L 32.18 42.628 L 32.18 42.628 Q 32.32 42.614 32.422 42.486 L 32.422 42.486 L 32.422 42.486 Q 32.524 42.485 32.614 42.535 L 32.614 42.535 L 32.614 42.535 Q 32.704 42.586 32.781 42.636 L 32.781 42.636 L 32.781 42.636 Q 32.858 42.687 32.934 42.699 L 32.934 42.699 L 32.934 42.699 Q 33.011 42.711 33.074 42.621 L 33.074 42.621 L 33.074 42.621 Q 33.309 43.233 33.287 43.706 L 33.287 43.706 L 33.287 43.706 Q 33.266 44.179 33.065 44.615 L 33.065 44.615 L 33.065 44.615 Q 32.864 45.051 32.541 45.507 L 32.541 45.507 L 32.541 45.507 Q 32.219 45.963 31.84 46.528 L 31.84 46.528 L 31.84 46.528 Q 31.752 46.67 31.644 46.715 L 31.644 46.715 L 31.644 46.715 Q 31.535 46.761 31.434 46.864 L 31.434 46.864 L 31.434 46.864 Q 31.207 47.223 30.852 47.686 L 30.852 47.686 L 30.852 47.686 Q 30.498 48.149 30.067 48.561 L 30.067 48.561 L 30.067 48.561 Q 29.636 48.974 29.159 49.265 L 29.159 49.265 L 29.159 49.265 Q 28.682 49.556 28.196 49.56 L 28.196 49.56 L 28.196 49.56 Q 28.005 49.574 27.851 49.486 L 27.851 49.486 L 27.851 49.486 Q 27.697 49.398 27.493 49.476 L 27.493 49.476 L 27.493 49.476 Q 27.313 49.324 27.069 49.16 L 27.069 49.16 L 27.069 49.16 Q 26.825 48.996 26.561 48.813 L 26.561 48.813 L 26.561 48.813 Q 26.298 48.629 26.06 48.433 L 26.06 48.433 L 26.06 48.433 Q 25.822 48.237 25.68 48.021 L 25.68 48.021 L 25.68 48.021 Q 25.525 47.792 25.49 47.518 L 25.49 47.518 L 25.49 47.518 Q 25.456 47.243 25.238 47.104 L 25.238 47.104 L 25.238 47.104 Q 25.288 47.027 25.243 46.957 L 25.243 46.957 L 25.243 46.957 Q 25.198 46.887 25.3 46.81 L 25.3 46.81 L 25.3 46.81 Q 25.144 46.504 25.026 46.211 L 25.026 46.211 L 25.026 46.211 Q 24.909 45.918 24.811 45.632 L 24.811 45.632 L 24.811 45.632 Q 24.713 45.345 24.608 45.052 L 24.608 45.052 L 24.608 45.052 Q 24.504 44.759 24.348 44.428 L 24.348 44.428 L 24.348 44.428 Q 24.003 44.443 23.721 44.33 L 23.721 44.33 L 23.721 44.33 Q 23.439 44.218 23.201 44.06 L 23.201 44.06 L 23.201 44.06 Q 22.964 43.902 22.726 43.719 L 22.726 43.719 L 22.726 43.719 Q 22.488 43.535 22.206 43.384 L 22.206 43.384 L 22.206 43.384 Q 22.139 43.065 22.201 42.758 L 22.201 42.758 L 22.201 42.758 Q 22.262 42.451 22.4 42.156 L 22.4 42.156 L 22.4 42.156 Q 22.539 41.861 22.741 41.552 L 22.741 41.552 L 22.741 41.552 Q 22.943 41.244 23.157 40.897 L 23.157 40.897 L 23.157 40.897 Q 23.497 40.217 23.806 39.723 L 23.806 39.723 L 23.806 39.723 Q 24.115 39.229 24.444 38.779 L 24.444 38.779 L 24.444 38.779 Q 24.773 38.329 25.139 37.853 L 25.139 37.853 L 25.139 37.853 Q 25.506 37.377 25.936 36.735 L 25.936 36.735 L 25.936 36.735 Q 26.166 36.733 26.267 36.63 L 26.267 36.63 L 26.267 36.63 Q 26.202 36.465 26.317 36.438 L 26.317 36.438 L 26.317 36.438 Q 26.432 36.412 26.303 36.311 L 26.303 36.311 L 26.303 36.311 Q 26.649 36.397 26.993 36.343 L 26.993 36.343 L 26.993 36.343 Q 27.338 36.29 27.682 36.146 Z  M 29.036 37.682 L 29.036 37.682 L 29.036 37.682 Q 28.854 37.326 28.857 36.936 L 28.857 36.936 L 28.857 36.936 Q 28.861 36.546 28.96 36.175 L 28.96 36.175 L 28.96 36.175 Q 29.059 35.803 29.223 35.457 L 29.223 35.457 L 29.223 35.457 Q 29.386 35.111 29.55 34.815 L 29.55 34.815 L 29.55 34.815 Q 29.838 34.085 30.215 33.302 L 30.215 33.302 L 30.215 33.302 Q 30.592 32.52 31.04 31.756 L 31.04 31.756 L 31.04 31.756 Q 31.488 30.992 32.076 30.304 L 32.076 30.304 L 32.076 30.304 Q 32.665 29.615 33.569 29.11 L 33.569 29.11 L 33.569 29.11 Q 33.735 29.198 33.927 29.235 L 33.927 29.235 L 33.927 29.235 Q 34.119 29.272 34.318 29.302 L 34.318 29.302 L 34.318 29.302 Q 34.516 29.332 34.689 29.376 L 34.689 29.376 L 34.689 29.376 Q 34.862 29.419 34.99 29.52 L 34.99 29.52 L 34.99 29.52 Q 35.233 29.506 35.444 29.561 L 35.444 29.561 L 35.444 29.561 Q 35.656 29.617 35.824 29.884 L 35.824 29.884 L 35.824 29.884 Q 35.8 30.115 35.763 30.319 L 35.763 30.319 L 35.763 30.319 Q 35.727 30.524 35.651 30.729 L 35.651 30.729 L 35.651 30.729 Q 35.067 31.092 34.623 31.619 L 34.623 31.619 L 34.623 31.619 Q 34.18 32.146 33.826 32.558 L 33.826 32.558 L 33.826 32.558 Q 33.596 32.56 33.437 32.721 L 33.437 32.721 L 33.437 32.721 Q 33.279 32.882 33.159 33.106 L 33.159 33.106 L 33.159 33.106 Q 33.04 33.331 32.92 33.556 L 32.92 33.556 L 32.92 33.556 Q 32.8 33.78 32.622 33.909 L 32.622 33.909 L 32.622 33.909 Q 32.599 34.14 32.447 34.358 L 32.447 34.358 L 32.447 34.358 Q 32.295 34.576 32.106 34.821 L 32.106 34.821 L 32.106 34.821 Q 32.157 34.897 32.215 34.877 L 32.215 34.877 L 32.215 34.877 Q 32.272 34.858 32.311 34.947 L 32.311 34.947 L 32.311 34.947 Q 32.477 34.958 32.636 34.874 L 32.636 34.874 L 32.636 34.874 Q 32.795 34.79 32.967 34.693 L 32.967 34.693 L 32.967 34.693 Q 33.139 34.595 33.298 34.549 L 33.298 34.549 L 33.298 34.549 Q 33.458 34.503 33.625 34.592 L 33.625 34.592 L 33.625 34.592 Q 33.815 34.398 34.044 34.345 L 34.044 34.345 L 34.044 34.345 Q 34.274 34.293 34.491 34.329 L 34.491 34.329 L 34.491 34.329 Q 34.709 34.366 34.901 34.466 L 34.901 34.466 L 34.901 34.466 Q 35.094 34.567 35.21 34.681 L 35.21 34.681 L 35.21 34.681 Q 35.351 34.744 35.389 34.68 L 35.389 34.68 L 35.389 34.68 Q 35.427 34.616 35.554 34.615 L 35.554 34.615 L 35.554 34.615 Q 35.76 34.741 36.086 34.757 L 36.086 34.757 L 36.086 34.757 Q 36.412 34.774 36.707 34.887 L 36.707 34.887 L 36.707 34.887 Q 37.054 35.178 37.318 35.412 L 37.318 35.412 L 37.318 35.412 Q 37.582 35.647 37.738 36.003 L 37.738 36.003 L 37.738 36.003 Q 38.024 36.665 38.062 37.374 L 38.062 37.374 L 38.062 37.374 Q 38.099 38.083 37.964 38.8 L 37.964 38.8 L 37.964 38.8 Q 37.829 39.517 37.554 40.209 L 37.554 40.209 L 37.554 40.209 Q 37.278 40.901 36.963 41.504 L 36.963 41.504 L 36.963 41.504 Q 36.9 41.543 36.862 41.607 L 36.862 41.607 L 36.862 41.607 Q 36.824 41.671 36.772 41.57 L 36.772 41.57 L 36.772 41.57 Q 36.761 41.761 36.666 41.909 L 36.666 41.909 L 36.666 41.909 Q 36.571 42.057 36.426 42.192 L 36.426 42.192 L 36.426 42.192 Q 36.28 42.327 36.121 42.463 L 36.121 42.463 L 36.121 42.463 Q 35.962 42.598 35.861 42.752 L 35.861 42.752 L 35.861 42.752 Q 35.682 42.754 35.529 42.742 L 35.529 42.742 L 35.529 42.742 Q 35.375 42.731 35.209 42.643 L 35.209 42.643 L 35.209 42.643 Q 35.145 42.707 35.087 42.637 L 35.087 42.637 L 35.087 42.637 Q 35.029 42.567 34.978 42.619 L 34.978 42.619 L 34.978 42.619 Q 34.926 42.415 34.9 42.402 L 34.9 42.402 L 34.9 42.402 Q 34.874 42.39 34.83 42.409 L 34.83 42.409 L 34.83 42.409 Q 34.785 42.429 34.741 42.435 L 34.741 42.435 L 34.741 42.435 Q 34.696 42.442 34.67 42.391 L 34.67 42.391 L 34.67 42.391 Q 34.618 42.238 34.47 42.118 L 34.47 42.118 L 34.47 42.118 Q 34.322 41.998 34.168 41.871 L 34.168 41.871 L 34.168 41.871 Q 34.013 41.745 33.916 41.586 L 33.916 41.586 L 33.916 41.586 Q 33.819 41.427 33.894 41.196 L 33.894 41.196 L 33.894 41.196 Q 34.376 40.809 34.679 40.334 L 34.679 40.334 L 34.679 40.334 Q 34.982 39.859 35.17 39.359 L 35.17 39.359 L 35.17 39.359 Q 35.358 38.859 35.488 38.366 L 35.488 38.366 L 35.488 38.366 Q 35.618 37.873 35.781 37.424 L 35.781 37.424 L 35.781 37.424 Q 35.703 37.272 35.696 37.125 L 35.696 37.125 L 35.696 37.125 Q 35.688 36.978 35.7 36.837 L 35.7 36.837 L 35.7 36.837 Q 35.711 36.696 35.697 36.556 L 35.697 36.556 L 35.697 36.556 Q 35.684 36.415 35.593 36.276 L 35.593 36.276 L 35.593 36.276 Q 35.515 36.174 35.439 36.213 L 35.439 36.213 L 35.439 36.213 Q 35.363 36.252 35.285 36.176 L 35.285 36.176 L 35.107 36.279 L 35.107 36.279 Q 34.725 36.385 34.324 36.599 L 34.324 36.599 L 34.324 36.599 Q 33.923 36.813 33.592 36.918 L 33.592 36.918 L 33.592 36.918 Q 33.53 37.135 33.37 37.22 L 33.37 37.22 L 33.37 37.22 Q 33.211 37.304 32.983 37.459 L 32.983 37.459 L 32.983 37.459 Q 32.526 37.872 32.062 38.214 L 32.062 38.214 L 32.062 38.214 Q 31.598 38.556 31.063 38.765 L 31.063 38.765 L 31.063 38.765 Q 30.974 38.727 30.884 38.715 L 30.884 38.715 L 30.884 38.715 Q 30.794 38.703 30.719 38.831 L 30.719 38.831 L 30.719 38.831 Q 30.54 38.807 30.367 38.79 L 30.367 38.79 L 30.367 38.79 Q 30.194 38.772 30.015 38.722 L 30.015 38.722 L 30.015 38.722 Q 29.886 38.544 29.789 38.424 L 29.789 38.424 L 29.789 38.424 Q 29.692 38.303 29.501 38.292 L 29.501 38.292 L 29.501 38.292 Q 29.384 38.075 29.306 37.948 L 29.306 37.948 L 29.306 37.948 Q 29.228 37.821 29.036 37.682 Z  M 42.436 33.858 L 42.436 33.858 L 42.436 33.858 Q 42.886 34.174 42.997 34.499 L 42.997 34.499 L 42.997 34.499 Q 43.108 34.823 43.021 35.131 L 43.021 35.131 L 43.021 35.131 Q 42.934 35.438 42.694 35.709 L 42.694 35.709 L 42.694 35.709 Q 42.453 35.979 42.186 36.173 L 42.186 36.173 L 42.186 36.173 Q 41.879 36.124 41.507 35.961 L 41.507 35.961 L 41.507 35.961 Q 41.135 35.797 40.757 35.602 L 40.757 35.602 L 40.757 35.602 Q 40.378 35.407 40.025 35.199 L 40.025 35.199 L 40.025 35.199 Q 39.672 34.991 39.402 34.827 L 39.402 34.827 L 39.402 34.827 Q 39.311 34.611 39.131 34.395 L 39.131 34.395 L 39.131 34.395 Q 38.95 34.179 38.75 33.97 L 38.75 33.97 L 38.75 33.97 Q 38.551 33.76 38.344 33.545 L 38.344 33.545 L 38.344 33.545 Q 38.138 33.329 37.97 33.113 L 37.97 33.113 L 37.97 33.113 Q 37.518 32.491 37.2 31.835 L 37.2 31.835 L 37.2 31.835 Q 36.882 31.179 36.455 30.557 L 36.455 30.557 L 36.455 30.557 Q 36.365 30.417 36.217 30.36 L 36.217 30.36 L 36.217 30.36 Q 36.07 30.304 36.005 30.19 L 36.005 30.19 L 36.005 30.19 Q 35.966 30.126 36.01 30.043 L 36.01 30.043 L 36.01 30.043 Q 36.054 29.959 36.003 29.883 L 36.003 29.883 L 36.003 29.883 Q 35.899 29.705 35.79 29.635 L 35.79 29.635 L 35.79 29.635 Q 35.681 29.566 35.615 29.375 L 35.615 29.375 L 35.615 29.375 Q 35.576 29.209 35.471 28.916 L 35.471 28.916 L 35.471 28.916 Q 35.367 28.623 35.122 28.433 L 35.122 28.433 L 35.122 28.433 Q 35.159 28.241 35.157 28.037 L 35.157 28.037 L 35.157 28.037 Q 35.156 27.832 35.18 27.64 L 35.18 27.64 L 35.18 27.64 Q 35.204 27.448 35.273 27.25 L 35.273 27.25 L 35.273 27.25 Q 35.341 27.051 35.532 26.858 L 35.532 26.858 L 35.532 26.858 Q 35.762 26.882 35.948 27.002 L 35.948 27.002 L 35.948 27.002 Q 36.134 27.122 36.32 27.242 L 36.32 27.242 L 36.32 27.242 Q 36.507 27.362 36.705 27.43 L 36.705 27.43 L 36.705 27.43 Q 36.904 27.499 37.133 27.42 L 37.133 27.42 L 37.133 27.42 Q 37.236 27.522 37.391 27.674 L 37.391 27.674 L 37.391 27.674 Q 37.545 27.826 37.706 27.959 L 37.706 27.959 L 37.706 27.959 Q 37.867 28.092 38.034 28.167 L 38.034 28.167 L 38.034 28.167 Q 38.2 28.243 38.341 28.178 L 38.341 28.178 L 38.341 28.178 Q 38.73 29.018 39.139 29.813 L 39.139 29.813 L 39.139 29.813 Q 39.548 30.609 40.033 31.34 L 40.033 31.34 L 40.033 31.34 Q 40.518 32.071 41.105 32.712 L 41.105 32.712 L 41.105 32.712 Q 41.691 33.352 42.436 33.858 Z  M 46.68 32.355 L 46.68 32.355 L 46.68 32.355 Q 46.591 32.394 46.489 32.446 L 46.489 32.446 L 46.053 32.321 L 46.005 32.679 L 46.005 32.679 Q 45.865 32.719 45.769 32.726 L 45.769 32.726 L 45.769 32.726 Q 45.673 32.733 45.545 32.734 L 45.545 32.734 L 45.545 32.734 Q 45.303 32.774 45.092 32.77 L 45.092 32.77 L 45.092 32.77 Q 44.881 32.765 44.765 32.676 L 44.765 32.676 L 44.624 32.562 L 44.471 32.666 L 44.471 32.666 Q 44.228 32.553 44.106 32.509 L 44.106 32.509 L 44.106 32.509 Q 43.984 32.465 43.844 32.505 L 43.844 32.505 L 43.844 32.505 Q 43.124 31.948 42.819 31.395 L 42.819 31.395 L 42.819 31.395 Q 42.515 30.841 42.279 30.102 L 42.279 30.102 L 42.279 30.102 Q 42.379 29.897 42.41 29.685 L 42.41 29.685 L 42.41 29.685 Q 42.44 29.474 42.451 29.283 L 42.451 29.283 L 42.451 29.283 Q 42.463 29.091 42.493 28.918 L 42.493 28.918 L 42.493 28.918 Q 42.524 28.745 42.6 28.643 L 42.6 28.643 L 42.649 28.463 L 42.649 28.463 Q 42.607 27.991 42.712 27.485 L 42.712 27.485 L 42.712 27.485 Q 42.816 26.98 42.94 26.442 L 42.94 26.442 L 42.94 26.442 Q 43.052 26.019 43.15 25.571 L 43.15 25.571 L 43.15 25.571 Q 43.249 25.123 43.259 24.701 L 43.259 24.701 L 43.259 24.701 Q 43.373 24.611 43.397 24.483 L 43.397 24.483 L 43.397 24.483 Q 43.384 24.368 43.281 24.267 L 43.281 24.267 L 43.281 24.267 Q 43.28 24.216 43.293 24.164 L 43.293 24.164 L 43.293 24.164 Q 43.305 24.113 43.305 24.062 L 43.305 24.062 L 43.305 24.062 Q 43.329 23.909 43.391 23.665 L 43.391 23.665 L 43.391 23.665 Q 43.453 23.422 43.362 23.231 L 43.362 23.231 L 43.37 22.681 L 43.003 23.081 L 43.003 23.081 Q 42.724 23.389 42.427 23.743 L 42.427 23.743 L 42.427 23.743 Q 42.129 24.097 41.927 24.354 L 41.927 24.354 L 41.927 24.354 Q 41.762 24.573 41.566 24.785 L 41.566 24.785 L 41.566 24.785 Q 41.37 24.997 41.142 25.255 L 41.142 25.255 L 41.142 25.255 Q 40.491 25.401 39.811 25.074 L 39.811 25.074 L 39.811 25.074 Q 39.131 24.747 38.794 24.11 L 38.794 24.11 L 38.794 24.11 Q 38.87 24.008 38.901 23.912 L 38.901 23.912 L 38.901 23.912 Q 38.932 23.815 38.97 23.726 L 38.97 23.726 L 38.97 23.726 Q 39.071 23.597 39.122 23.571 L 39.122 23.571 L 39.122 23.571 Q 39.173 23.545 39.236 23.481 L 39.236 23.481 L 39.236 23.481 Q 39.527 23.057 39.742 22.8 L 39.742 22.8 L 39.742 22.8 Q 39.957 22.542 40.16 22.336 L 40.16 22.336 L 40.16 22.336 Q 40.376 22.117 40.598 21.93 L 40.598 21.93 L 40.598 21.93 Q 40.82 21.743 41.075 21.613 L 41.075 21.613 L 41.075 21.613 Q 41.518 21.163 41.936 20.661 L 41.936 20.661 L 41.936 20.661 Q 42.354 20.159 42.939 19.771 L 42.939 19.771 L 42.939 19.771 Q 43.165 19.309 43.552 19.019 L 43.552 19.019 L 43.552 19.019 Q 43.94 18.728 44.451 18.724 L 44.451 18.724 L 44.451 18.724 Q 44.683 18.927 44.887 18.938 L 44.887 18.938 L 44.887 18.938 Q 45.092 18.949 45.295 18.845 L 45.295 18.845 L 45.295 18.845 Q 45.77 19.11 45.971 19.473 L 45.971 19.473 L 45.971 19.473 Q 46.172 19.835 46.201 20.244 L 46.201 20.244 L 46.201 20.244 Q 46.23 20.653 46.144 21.088 L 46.144 21.088 L 46.144 21.088 Q 46.058 21.523 45.959 21.933 L 45.959 21.933 L 45.959 21.933 Q 45.998 22.124 45.962 22.303 L 45.962 22.303 L 45.962 22.303 Q 45.925 22.482 45.939 22.674 L 45.939 22.674 L 45.939 22.674 Q 46.061 23.631 45.928 24.578 L 45.928 24.578 L 45.928 24.578 Q 45.795 25.525 45.598 26.472 L 45.598 26.472 L 45.598 26.472 Q 45.463 27.15 45.341 27.829 L 45.341 27.829 L 45.341 27.829 Q 45.218 28.507 45.172 29.197 L 45.172 29.197 L 45.162 29.44 L 45.405 29.451 L 45.405 29.451 Q 45.711 29.449 45.914 29.243 L 45.914 29.243 L 45.914 29.243 Q 46.028 29.127 46.104 28.985 L 46.104 28.985 L 46.104 28.985 Q 46.179 28.844 46.242 28.703 L 46.242 28.703 L 46.242 28.703 Q 46.318 28.575 46.362 28.466 L 46.362 28.466 L 46.362 28.466 Q 46.405 28.357 46.469 28.293 L 46.469 28.293 L 46.634 28.125 L 46.634 28.125 Q 46.671 27.959 46.733 27.818 L 46.733 27.818 L 46.733 27.818 Q 46.796 27.677 46.872 27.548 L 46.872 27.548 L 46.872 27.548 Q 46.948 27.42 47.011 27.304 L 47.011 27.304 L 47.011 27.304 Q 47.073 27.189 47.111 27.022 L 47.111 27.022 L 47.111 27.022 Q 47.389 26.739 47.559 26.412 L 47.559 26.412 L 47.559 26.412 Q 47.729 26.085 47.88 25.726 L 47.88 25.726 L 47.88 25.726 Q 47.968 25.508 48.062 25.309 L 48.062 25.309 L 48.062 25.309 Q 48.156 25.11 48.282 24.93 L 48.282 24.93 L 48.282 24.93 Q 48.398 24.942 48.512 24.916 L 48.512 24.916 L 48.512 24.916 Q 48.627 24.889 48.729 24.863 L 48.729 24.863 L 48.729 24.863 Q 48.997 24.797 49.1 24.873 L 49.1 24.873 L 49.499 25.189 L 49.495 24.703 L 49.495 24.703 Q 49.776 24.676 49.949 24.821 L 49.949 24.821 L 49.949 24.821 Q 50.123 24.967 50.33 25.272 L 50.33 25.272 L 50.33 25.272 Q 50.336 26.09 49.96 26.936 L 49.96 26.936 L 49.96 26.936 Q 49.583 27.782 49.117 28.693 L 49.117 28.693 L 49.117 28.693 Q 49.016 28.873 48.909 29.059 L 48.909 29.059 L 48.909 29.059 Q 48.802 29.245 48.714 29.438 L 48.714 29.438 L 48.508 29.209 L 48.409 29.67 L 48.409 29.67 Q 48.397 29.76 48.404 29.83 L 48.404 29.83 L 48.404 29.83 Q 48.411 29.9 48.424 29.964 L 48.424 29.964 L 48.424 29.964 Q 48.185 30.388 48.008 30.645 L 48.008 30.645 L 48.008 30.645 Q 47.831 30.901 47.68 31.133 L 47.68 31.133 L 47.68 31.133 Q 47.516 31.402 47.358 31.627 L 47.358 31.627 L 47.358 31.627 Q 47.2 31.852 46.984 32.071 L 46.984 32.071 L 46.984 32.071 Q 46.921 32.135 46.845 32.213 L 46.845 32.213 L 46.845 32.213 Q 46.769 32.29 46.68 32.355 Z  M 51.744 11.702 L 51.744 11.702 L 51.744 11.702 Q 51.846 11.778 51.885 11.829 L 51.885 11.829 L 51.885 11.829 Q 51.924 11.88 51.956 11.924 L 51.956 11.924 L 51.956 11.924 Q 51.988 11.969 52.033 12.013 L 52.033 12.013 L 52.033 12.013 Q 52.079 12.057 52.194 12.12 L 52.194 12.12 L 52.194 12.12 Q 52.366 12.822 52.178 13.335 L 52.178 13.335 L 52.178 13.335 Q 51.99 13.847 51.656 14.329 L 51.656 14.329 L 51.656 14.329 Q 51.321 14.811 50.973 15.318 L 50.973 15.318 L 50.973 15.318 Q 50.626 15.826 50.465 16.504 L 50.465 16.504 L 50.465 16.504 Q 50.236 16.608 50.167 16.807 L 50.167 16.807 L 50.167 16.807 Q 50.099 17.006 49.819 17.238 L 49.819 17.238 L 49.819 17.238 Q 49.82 17.391 49.739 17.539 L 49.739 17.539 L 49.739 17.539 Q 49.657 17.686 49.581 17.84 L 49.581 17.84 L 49.581 17.84 Q 49.748 17.903 49.864 18.03 L 49.864 18.03 L 49.864 18.03 Q 49.98 18.157 50.095 18.194 L 50.095 18.194 L 50.095 18.194 Q 50.577 17.781 51.065 17.183 L 51.065 17.183 L 51.065 17.183 Q 51.552 16.585 52.059 16.045 L 52.059 16.045 L 52.059 16.045 Q 52.136 16.095 52.13 16.14 L 52.13 16.14 L 52.13 16.14 Q 52.124 16.185 52.188 16.223 L 52.188 16.223 L 52.188 16.223 Q 52.341 16.196 52.527 16.201 L 52.527 16.201 L 52.527 16.201 Q 52.712 16.206 52.891 16.204 L 52.891 16.204 L 52.891 16.204 Q 53.07 16.203 53.223 16.163 L 53.223 16.163 L 53.223 16.163 Q 53.376 16.124 53.49 15.982 L 53.49 15.982 L 53.49 15.982 Q 53.643 16.032 53.785 16.133 L 53.785 16.133 L 53.785 16.133 Q 53.926 16.234 54.004 16.413 L 54.004 16.413 L 54.004 16.413 Q 53.943 16.758 53.888 17.11 L 53.888 17.11 L 53.888 17.11 Q 53.834 17.462 53.728 17.801 L 53.728 17.801 L 53.728 17.801 Q 53.622 18.141 53.445 18.462 L 53.445 18.462 L 53.445 18.462 Q 53.269 18.783 52.952 19.079 L 52.952 19.079 L 52.952 19.079 Q 52.888 19.143 52.857 19.176 L 52.857 19.176 L 52.857 19.176 Q 52.825 19.208 52.736 19.221 L 52.736 19.221 L 52.736 19.221 Q 52.699 19.388 52.489 19.549 L 52.489 19.549 L 52.489 19.549 Q 52.279 19.71 52.242 19.877 L 52.242 19.877 L 52.242 19.877 Q 52.039 19.955 51.849 20.161 L 51.849 20.161 L 51.849 20.161 Q 51.658 20.367 51.455 20.471 L 51.455 20.471 L 51.455 20.471 Q 51.522 20.943 51.667 21.415 L 51.667 21.415 L 51.667 21.415 Q 51.811 21.887 52.032 22.358 L 52.032 22.358 L 52.032 22.358 Q 52.527 21.983 52.8 21.681 L 52.8 21.681 L 52.8 21.681 Q 53.072 21.378 53.293 21.089 L 53.293 21.089 L 53.293 21.089 Q 53.515 20.8 53.749 20.498 L 53.749 20.498 L 53.749 20.498 Q 53.983 20.195 54.401 19.796 L 54.401 19.796 L 54.401 19.796 Q 54.513 19.399 54.817 19 L 54.817 19 L 54.817 19 Q 55.12 18.602 55.309 18.204 L 55.309 18.204 L 55.309 18.204 Q 55.449 18.139 55.622 18.157 L 55.622 18.157 L 55.622 18.157 Q 55.794 18.175 55.948 18.186 L 55.948 18.186 L 55.948 18.186 Q 56.101 18.198 56.242 18.184 L 56.242 18.184 L 56.242 18.184 Q 56.382 18.17 56.483 18.042 L 56.483 18.042 L 56.483 18.042 Q 56.586 18.041 56.675 18.091 L 56.675 18.091 L 56.675 18.091 Q 56.765 18.142 56.842 18.192 L 56.842 18.192 L 56.842 18.192 Q 56.919 18.243 56.996 18.255 L 56.996 18.255 L 56.996 18.255 Q 57.073 18.267 57.136 18.177 L 57.136 18.177 L 57.136 18.177 Q 57.371 18.789 57.349 19.262 L 57.349 19.262 L 57.349 19.262 Q 57.327 19.735 57.126 20.171 L 57.126 20.171 L 57.126 20.171 Q 56.925 20.607 56.603 21.063 L 56.603 21.063 L 56.603 21.063 Q 56.281 21.519 55.902 22.084 L 55.902 22.084 L 55.902 22.084 Q 55.813 22.226 55.705 22.271 L 55.705 22.271 L 55.705 22.271 Q 55.597 22.317 55.496 22.42 L 55.496 22.42 L 55.496 22.42 Q 55.268 22.779 54.914 23.242 L 54.914 23.242 L 54.914 23.242 Q 54.56 23.705 54.129 24.117 L 54.129 24.117 L 54.129 24.117 Q 53.698 24.53 53.221 24.821 L 53.221 24.821 L 53.221 24.821 Q 52.744 25.112 52.258 25.116 L 52.258 25.116 L 52.258 25.116 Q 52.067 25.13 51.913 25.042 L 51.913 25.042 L 51.913 25.042 Q 51.759 24.954 51.555 25.032 L 51.555 25.032 L 51.555 25.032 Q 51.375 24.88 51.13 24.716 L 51.13 24.716 L 51.13 24.716 Q 50.886 24.552 50.623 24.369 L 50.623 24.369 L 50.623 24.369 Q 50.36 24.185 50.122 23.989 L 50.122 23.989 L 50.122 23.989 Q 49.884 23.793 49.741 23.577 L 49.741 23.577 L 49.741 23.577 Q 49.586 23.348 49.552 23.074 L 49.552 23.074 L 49.552 23.074 Q 49.518 22.799 49.3 22.66 L 49.3 22.66 L 49.3 22.66 Q 49.35 22.583 49.305 22.513 L 49.305 22.513 L 49.305 22.513 Q 49.26 22.443 49.361 22.366 L 49.361 22.366 L 49.361 22.366 Q 49.205 22.06 49.088 21.767 L 49.088 21.767 L 49.088 21.767 Q 48.971 21.474 48.873 21.188 L 48.873 21.188 L 48.873 21.188 Q 48.775 20.901 48.67 20.608 L 48.67 20.608 L 48.67 20.608 Q 48.566 20.315 48.41 19.984 L 48.41 19.984 L 48.41 19.984 Q 48.065 19.999 47.783 19.886 L 47.783 19.886 L 47.783 19.886 Q 47.501 19.774 47.263 19.616 L 47.263 19.616 L 47.263 19.616 Q 47.025 19.458 46.787 19.275 L 46.787 19.275 L 46.787 19.275 Q 46.55 19.091 46.267 18.94 L 46.267 18.94 L 46.267 18.94 Q 46.201 18.621 46.262 18.314 L 46.262 18.314 L 46.262 18.314 Q 46.324 18.007 46.462 17.712 L 46.462 17.712 L 46.462 17.712 Q 46.6 17.417 46.802 17.108 L 46.802 17.108 L 46.802 17.108 Q 47.004 16.8 47.219 16.453 L 47.219 16.453 L 47.219 16.453 Q 47.559 15.773 47.868 15.279 L 47.868 15.279 L 47.868 15.279 Q 48.177 14.785 48.506 14.335 L 48.506 14.335 L 48.506 14.335 Q 48.834 13.885 49.201 13.409 L 49.201 13.409 L 49.201 13.409 Q 49.568 12.933 49.997 12.291 L 49.997 12.291 L 49.997 12.291 Q 50.227 12.289 50.329 12.186 L 50.329 12.186 L 50.329 12.186 Q 50.264 12.021 50.378 11.994 L 50.378 11.994 L 50.378 11.994 Q 50.493 11.968 50.365 11.866 L 50.365 11.866 L 50.365 11.866 Q 50.71 11.953 51.055 11.899 L 51.055 11.899 L 51.055 11.899 Q 51.4 11.846 51.744 11.702 Z " fill="rgb(91,91,91)"/><path d=" M 67.903 11.702 C 66.104 12.218 64.615 11.952 63.412 10.889 C 66.266 8.283 68.521 5.222 70.156 1.688 C 73.384 5.322 75.673 8.489 77 11.174 C 75.496 10.958 74.035 11.012 72.593 11.32 C 73.845 25.826 67.068 34.507 52.24 37.346 C 53.895 35.303 55.614 33.801 57.351 32.809 C 55.88 31.928 54.124 31.079 52.038 30.231 C 61.894 27.445 67.19 21.274 67.903 11.702 Z " fill="rgb(91,91,91)" vector-effect="non-scaling-stroke" stroke-width="1" stroke="rgb(91,91,91)" stroke-linejoin="round" stroke-linecap="round" stroke-miterlimit="3"/></g></svg>